<svg width="194" height="194" viewBox="0 0 194 194" fill="none" xmlns="http://www.w3.org/2000/svg">
<path d="M67.0659 125.414L59.8667 131.476L54.941 131.855L16.2928 98.5115L56.4566 60.6212L66.687 70.0938L45.0895 96.9959L67.0659 125.414Z" fill="white" stroke="white" stroke-width="0.757806"/>
<path d="M137.427 60.8615L127.197 70.3341L126.938 70.5743L127.159 70.8497L148.569 97.5177L126.775 125.7L126.553 125.988L126.831 126.222L134.03 132.284L134.124 132.363L134.246 132.372L139.172 132.751L139.329 132.764L139.448 132.66L178.095 99.3165L178.414 99.0431L178.108 98.754L137.945 60.8644L137.687 60.6212L137.427 60.8615Z" fill="white"/>
<path d="M82.222 160.652L79.9486 161.031L75.4017 161.788L74.6439 157.999L87.5266 109.5L62.1401 107.984L61.0034 102.679L108.745 29.5511L116.702 30.309L106.472 82.2187L132.995 84.4921L133.753 86.7655L82.222 160.652Z" fill="white" stroke="white" stroke-width="0.757806"/>
<path fill-rule="evenodd" clip-rule="evenodd" d="M85.209 1.23198C34.7202 8.24169 -2.70031 52.3953 0.152827 101.594C2.66723 144.942 33.6949 181.272 76.6761 191.192C83.6025 192.79 87.1346 193.15 96.4738 193.207C109.466 193.286 115.718 192.354 127.124 188.635C141.991 183.789 155.145 175.472 166.429 163.786C177.616 152.199 184.584 140.875 189.227 126.735C192.603 116.453 193.852 108.441 193.852 97.0626C193.852 76.5753 188.616 59.621 177.095 42.8007C162.811 21.9451 140.837 7.51343 115.494 2.34519C108.135 0.84398 92.2172 0.258958 85.209 1.23198ZM114.141 33.2213C114.724 33.9238 113.284 40.8197 108.895 58.3501C105.568 71.6382 103.006 82.928 103.202 83.438C103.449 84.0837 107.31 84.5323 115.93 84.9165C122.734 85.2196 128.728 85.813 129.249 86.2351C129.77 86.6564 130.196 87.5855 130.196 88.2979C130.196 89.4687 112.214 116.618 90.2719 148.578C83.3948 158.594 81.6284 160.702 80.1165 160.702C78.8169 160.702 78.219 160.227 78.0523 159.06C77.9242 158.157 80.788 147.245 84.4164 134.811C91.9308 109.062 92.0717 108.45 90.6736 107.579C90.1128 107.229 85.0317 107.046 79.383 107.172C60.8645 107.586 59.9991 106.766 67.3801 95.788C69.9983 91.8959 79.4368 77.4574 88.3554 63.7032C97.274 49.9491 105.756 37.246 107.204 35.475C109.913 32.1611 112.551 31.3048 114.141 33.2213ZM60.6356 65.3727C62.2164 66.9164 63.5092 68.707 63.5092 69.3534C63.5092 69.9991 57.371 76.2571 49.8687 83.26C42.3664 90.2621 36.2282 96.254 36.2282 96.5738C36.2282 96.8944 38.3599 99.0428 40.9645 101.349C51.2585 110.461 61.6867 120.494 63.0462 122.594L64.4785 124.805L61.5662 127.787C59.965 129.427 58.0758 130.769 57.368 130.769C56.0517 130.769 25.1006 103.898 21.5313 99.6566C20.4454 98.3653 19.5565 96.8611 19.5565 96.3132C19.5565 94.8407 55.2128 62.5665 56.8398 62.5665C57.3468 62.5665 59.0548 63.829 60.6356 65.3727ZM145.17 68.513C157.921 79.9605 172.122 93.2683 172.864 94.4664C174.384 96.9164 172.628 99.5225 164.876 106.322C160.599 110.076 152.836 117.11 147.626 121.954C142.27 126.935 137.51 130.764 136.674 130.766C134.636 130.771 130.196 126.298 130.196 124.241C130.196 123.061 132.969 119.987 139.462 113.97C144.558 109.247 150.733 103.488 153.183 101.172L157.639 96.9619L143.956 84.6498C136.43 77.878 130.062 71.6739 129.804 70.8623C129.113 68.6851 129.992 66.6625 132.568 64.4944C136.233 61.4109 137.822 61.9178 145.17 68.513Z" fill="#4300C9"/>
</svg>
