<svg width="16" height="17" viewBox="0 0 16 17" fill="none" xmlns="http://www.w3.org/2000/svg">
<path opacity="0.85" d="M0.4 3.9L2.8 0.5H5.3L3.2 3.5H9.5C11.2239 3.5 12.8772 4.18482 14.0962 5.4038C15.3152 6.62279 16 8.27609 16 10C16 11.7239 15.3152 13.3772 14.0962 14.5962C12.8772 15.8152 11.2239 16.5 9.5 16.5V14.5C10.6935 14.5 11.8381 14.0259 12.682 13.182C13.5259 12.3381 14 11.1935 14 10C14 8.80653 13.5259 7.66193 12.682 6.81802C11.8381 5.9741 10.6935 5.5 9.5 5.5H3.2L5.3 8.5H2.8L0.4 5.1L0 4.5L0.4 3.9Z" fill="white"/>
</svg>
