<svg width="164" height="134" viewBox="0 0 164 134" fill="none" xmlns="http://www.w3.org/2000/svg">
<path d="M52.0659 96.6591L44.8667 102.722L39.941 103.1L1.29285 69.757L41.4566 31.8667L51.687 41.3393L30.0895 68.2414L52.0659 96.6591Z" fill="white" stroke="white" stroke-width="0.757806"/>
<path d="M122.427 32.1069L112.197 41.5796L111.938 41.8198L112.159 42.0952L133.569 68.7632L111.775 96.9458L111.553 97.2339L111.831 97.4673L119.03 103.53L119.124 103.609L119.246 103.618L124.172 103.997L124.329 104.009L124.448 103.906L163.095 70.562L163.414 70.2886L163.108 69.9995L122.945 32.1099L122.687 31.8667L122.427 32.1069Z" fill="white"/>
<path d="M67.222 131.897L64.9486 132.276L60.4017 133.034L59.6439 129.245L72.5266 80.7452L47.1401 79.2296L46.0034 73.9249L93.7452 0.796631L101.702 1.55444L91.4718 53.4642L117.995 55.7376L118.753 58.011L67.222 131.897Z" fill="white" stroke="white" stroke-width="0.757806"/>
</svg>
