<svg width="4" height="14" viewBox="0 0 4 14" fill="none" xmlns="http://www.w3.org/2000/svg">
<path opacity="0.8" d="M3.87461 12.25C3.87461 12.7141 3.67107 13.1592 3.30877 13.4874C2.94647 13.8156 2.45509 14 1.94272 14C1.43035 14 0.938971 13.8156 0.576671 13.4874C0.214372 13.1592 0.0108337 12.7141 0.0108337 12.25C0.0108337 11.7859 0.214372 11.3408 0.576671 11.0126C0.938971 10.6844 1.43035 10.5 1.94272 10.5C2.45509 10.5 2.94647 10.6844 3.30877 11.0126C3.67107 11.3408 3.87461 11.7859 3.87461 12.25ZM3.87461 7C3.87461 7.46413 3.67107 7.90925 3.30877 8.23744C2.94647 8.56563 2.45509 8.75 1.94272 8.75C1.43035 8.75 0.938971 8.56563 0.576671 8.23744C0.214372 7.90925 0.0108337 7.46413 0.0108337 7C0.0108337 6.53587 0.214372 6.09075 0.576671 5.76256C0.938971 5.43437 1.43035 5.25 1.94272 5.25C2.45509 5.25 2.94647 5.43437 3.30877 5.76256C3.67107 6.09075 3.87461 6.53587 3.87461 7ZM1.94272 3.5C2.45509 3.5 2.94647 3.31563 3.30877 2.98744C3.67107 2.65925 3.87461 2.21413 3.87461 1.75C3.87461 1.28587 3.67107 0.840752 3.30877 0.512563C2.94647 0.184374 2.45509 0 1.94272 0C1.43035 0 0.938971 0.184374 0.576671 0.512563C0.214372 0.840752 0.0108337 1.28587 0.0108337 1.75C0.0108337 2.21413 0.214372 2.65925 0.576671 2.98744C0.938971 3.31563 1.43035 3.5 1.94272 3.5Z" fill="#CA74FF"/>
</svg>
